<svg width="849" height="236" viewBox="0 0 849 236" fill="none" xmlns="http://www.w3.org/2000/svg">
<path d="M555.413 151.872L545.013 176H467.429V167.68L440.597 178.08V18.752H549.381L554.789 16.672V59.52H527.957V42.88H467.429V151.872H555.413ZM702.544 18.752L692.144 42.88H652V167.68L625.168 178.08V42.88H578.576V18.752H702.544ZM829.136 89.472V113.6H753.632V167.68L726.8 178.08V18.752H837.456L827.056 42.88H753.632V89.472H829.136Z" fill="#FFE66D"/>
<path d="M102.656 79.6979H41.1562V103.885C44.8438 101.76 50.875 98.9792 59.25 95.5417C62.6875 94.6042 66.8438 94.1354 71.7188 94.1354C78.4062 94.1354 84.375 95.9792 89.625 99.6667C95.5 103.729 98.4375 108.979 98.4375 115.417C98.4375 124.104 93.4688 130.417 83.5312 134.354C79.4062 135.979 75.8438 136.792 72.8438 136.792L94.5938 163.229L82.6875 171.854L49.2188 132.104L55.4062 119.26C58.7188 120.198 62.1875 120.667 65.8125 120.667C71.125 120.667 75.4688 119.417 78.8438 116.917C82.6562 114.167 84.5625 110.229 84.5625 105.104C84.5625 100.104 81 97.6042 73.875 97.6042C68.875 97.6042 63.5625 100.01 57.9375 104.823C53.9375 108.26 50.2812 112.417 46.9688 117.292C42.9688 123.167 40.9688 128.198 40.9688 132.385V171.667L24.8438 164.448V79.6979H12.9375V68.4479H24.2812C24.2812 50.5104 21.0312 35.6042 14.5312 23.7292C13.2812 21.4167 10.875 17.9479 7.3125 13.3229C3.9375 8.88544 1.59375 5.35419 0.28125 2.72919H19.3125C23 6.16669 26.8125 11.8229 30.75 19.6979C37.4375 33.0729 40.7812 49.3229 40.7812 68.4479H102.656V79.6979ZM193.125 79.6979H130.688V94.6979C130.938 94.6979 131.188 94.8229 131.438 95.0729C131.688 95.3229 131.906 95.4479 132.094 95.4479C131.594 95.4479 131.312 95.4167 131.25 95.3542C131.25 95.0417 135.906 94.0417 145.219 92.3542C148.656 91.7292 152.062 91.4167 155.438 91.4167C169.5 91.4167 178.531 95.3542 182.531 103.229C185.219 108.479 186.562 119.073 186.562 135.01V171.104C185.25 170.604 180.281 168.573 171.656 165.01C171.656 163.01 171.25 161.729 170.438 161.167C167.125 163.104 164.406 164.573 162.281 165.573C155.531 168.76 147.688 170.354 138.75 170.354C126.438 170.354 116.938 166.479 110.25 158.729C107 154.979 105.375 150.792 105.375 146.167C105.375 140.979 107.938 135.823 113.062 130.698C123 120.76 135.344 115.792 150.094 115.792C159.031 115.792 166.219 117.854 171.656 121.979V113.354C168.906 109.854 166.219 107.51 163.594 106.323C161.031 105.135 157.5 104.604 153 104.729C142.938 104.917 133.719 106.76 125.344 110.26C121.594 111.823 117.938 113.229 114.375 114.479V107.542C115.188 106.854 116.375 105.823 117.938 104.448C118.188 104.135 118.344 103.948 118.406 103.885V79.6979H99.1875V68.4479H193.125V79.6979ZM171.656 139.042C171.656 136.292 168.375 133.823 161.812 131.635C156.375 129.823 151.844 128.917 148.219 128.917C135.031 128.917 124.469 133.667 116.531 143.167C113.344 146.979 111.75 150.104 111.75 152.542C113.062 157.104 118.219 159.385 127.219 159.385C138.844 159.385 149.469 156.479 159.094 150.667C167.469 145.604 171.656 141.729 171.656 139.042ZM288.094 79.6979H277.875V115.229C274.188 113.042 268.875 111.167 261.938 109.604C255.438 108.104 249.812 107.354 245.062 107.354C233.625 107.354 224.031 109.385 216.281 113.448C211.906 115.76 209.719 118.792 209.719 122.542C209.719 127.542 212.344 130.042 217.594 130.042C220.781 130.042 224.938 129.104 230.062 127.229C233.375 126.042 237.625 124.542 242.812 122.729C245 121.979 248.875 121.604 254.438 121.604C265.25 121.604 273.312 124.948 278.625 131.635C281.188 134.823 282.469 138.573 282.469 142.885C282.469 152.823 276.219 160.635 263.719 166.323C258.531 168.698 253.594 170.042 248.906 170.354C253.406 174.854 257.688 177.104 261.75 177.104C263.062 177.104 264.469 176.917 265.969 176.542L275.438 192.01C273.5 193.698 269.531 194.542 263.531 194.542C258.656 194.542 254.531 192.885 251.156 189.573C249.344 187.76 246.781 183.979 243.469 178.229C240.656 173.292 238.312 170.792 236.438 170.729C224.875 170.417 215.969 168.323 209.719 164.448C205.781 162.01 203.812 158.667 203.812 154.417C203.812 149.167 206.938 146.542 213.188 146.542C215.5 146.542 220.312 148.354 227.625 151.979C235 155.542 241.062 157.323 245.812 157.323C255.312 157.323 264.219 155.073 272.531 150.573C276.594 148.385 278.625 145.698 278.625 142.51C278.625 137.76 274.875 135.385 267.375 135.385C265.062 135.385 257.594 137.073 244.969 140.448C237.531 142.448 232.969 143.448 231.281 143.448C221.344 143.448 213.156 138.76 206.719 129.385C203.594 124.885 202.031 120.042 202.031 114.854C201.969 104.292 209.188 97.1667 223.688 93.4792C229.625 91.9792 235.219 91.2292 240.469 91.2292C246.469 91.2292 254.969 92.6979 265.969 95.6354V79.6979H191.344V68.4479H288.094V79.6979ZM390.094 79.6979H314.438V107.917C321.25 100.479 327.562 95.6979 333.375 93.5729C336.625 92.3854 340.281 91.7917 344.344 91.7917C359.594 91.7917 371 99.2917 378.562 114.292C381.875 120.854 383.531 127.323 383.531 133.698C383.531 145.323 378.75 155.823 369.188 165.198C366 168.323 363.625 170.479 362.062 171.667L346.688 162.479C350.562 158.417 354.969 153.417 359.906 147.479C365.469 140.792 368.281 132.354 368.344 122.167C368.406 116.104 367.031 111.042 364.219 106.979C361.031 102.229 356.531 99.9167 350.719 100.042C345.344 100.167 339.594 102.198 333.469 106.135C327.969 109.635 323.406 113.823 319.781 118.698C315.844 123.948 313.875 129.01 313.875 133.885V171.104L296.344 161.729V79.6979H286.031V68.4479H296.344C296.344 50.0729 291.562 34.3854 282 21.3854C276.25 13.5729 270.938 8.07294 266.062 4.88544L285 4.69794C295.5 10.4479 303.844 22.8542 310.031 41.9167C312.969 50.9792 314.438 59.8229 314.438 68.4479H390.094V79.6979ZM420.844 58.6042C420.594 58.8542 419.875 58.9792 418.688 58.9792C417.688 58.9792 416.812 58.8542 416.062 58.6042L409.969 46.1354C407.469 42.1979 404.062 39.5417 399.75 38.1667C395.5 36.7292 392.875 35.1667 391.875 33.4792C390.938 30.6042 389.125 26.1979 386.438 20.2604V18.1042H390.094C394.906 19.6042 398.812 21.0104 401.812 22.3229C406.75 24.5104 410.062 27.0417 411.75 29.9167C412.688 31.4792 414.125 35.4792 416.062 41.9167C417.875 47.9792 419.406 52.1979 420.656 54.5729C420.781 55.6979 420.844 57.0417 420.844 58.6042ZM426.375 79.6979H388.219V68.4479H426.375V79.6979ZM415.688 172.323L399.938 163.604V91.2292H415.688V172.323Z" fill="#BD0014"/>
</svg>
